<mxfile host="app.diagrams.net" agent="Mozilla/5.0 (Windows NT 10.0; Win64; x64) AppleWebKit/537.36 (KHTML, like Gecko) Chrome/135.0.0.0 Safari/537.36" version="26.2.13">
  <diagram name="Page-1" id="9xmvwYHzPT9KTp0JgRCr">
    <mxGraphModel dx="2083" dy="1414" grid="0" gridSize="10" guides="1" tooltips="1" connect="1" arrows="1" fold="1" page="0" pageScale="1" pageWidth="827" pageHeight="1169" background="light-dark(#FFF0C9,#122300)" math="0" shadow="0">
      <root>
        <mxCell id="0" />
        <mxCell id="1" parent="0" />
        <mxCell id="axZxs7QjBzZ6pgx2wAAU-88" value="" style="edgeStyle=none;curved=1;rounded=0;orthogonalLoop=1;jettySize=auto;html=1;fontSize=13;startSize=8;endSize=8;fontStyle=1;" parent="1" source="axZxs7QjBzZ6pgx2wAAU-89" target="axZxs7QjBzZ6pgx2wAAU-102" edge="1">
          <mxGeometry relative="1" as="geometry" />
        </mxCell>
        <mxCell id="axZxs7QjBzZ6pgx2wAAU-89" value="Master Data" style="shape=process;whiteSpace=wrap;html=1;backgroundOutline=1;fontSize=13;fontStyle=1;" parent="1" vertex="1">
          <mxGeometry x="316" y="-103" width="120" height="60" as="geometry" />
        </mxCell>
        <mxCell id="axZxs7QjBzZ6pgx2wAAU-90" value="" style="edgeStyle=none;curved=1;rounded=0;orthogonalLoop=1;jettySize=auto;html=1;fontSize=13;startSize=8;endSize=8;fontStyle=1;" parent="1" source="axZxs7QjBzZ6pgx2wAAU-91" target="axZxs7QjBzZ6pgx2wAAU-93" edge="1">
          <mxGeometry relative="1" as="geometry" />
        </mxCell>
        <mxCell id="axZxs7QjBzZ6pgx2wAAU-91" value="Login" style="rounded=1;whiteSpace=wrap;html=1;fontSize=13;fontStyle=1;" parent="1" vertex="1">
          <mxGeometry x="-119" y="-581" width="120" height="60" as="geometry" />
        </mxCell>
        <mxCell id="axZxs7QjBzZ6pgx2wAAU-92" value="" style="edgeStyle=none;curved=1;rounded=0;orthogonalLoop=1;jettySize=auto;html=1;fontSize=13;startSize=8;endSize=8;fontStyle=1;" parent="1" source="axZxs7QjBzZ6pgx2wAAU-93" target="axZxs7QjBzZ6pgx2wAAU-96" edge="1">
          <mxGeometry relative="1" as="geometry" />
        </mxCell>
        <mxCell id="axZxs7QjBzZ6pgx2wAAU-93" value="Attendance" style="whiteSpace=wrap;html=1;rounded=1;fontSize=13;fontStyle=1;fillColor=#ffff88;strokeColor=#36393d;" parent="1" vertex="1">
          <mxGeometry x="-119" y="-401" width="120" height="60" as="geometry" />
        </mxCell>
        <mxCell id="axZxs7QjBzZ6pgx2wAAU-94" value="" style="edgeStyle=none;curved=1;rounded=0;orthogonalLoop=1;jettySize=auto;html=1;fontSize=13;startSize=8;endSize=8;fontStyle=1;" parent="1" source="axZxs7QjBzZ6pgx2wAAU-96" target="axZxs7QjBzZ6pgx2wAAU-98" edge="1">
          <mxGeometry relative="1" as="geometry" />
        </mxCell>
        <mxCell id="axZxs7QjBzZ6pgx2wAAU-95" value="" style="edgeStyle=none;curved=1;rounded=0;orthogonalLoop=1;jettySize=auto;html=1;fontSize=13;startSize=8;endSize=8;fontStyle=1;" parent="1" source="axZxs7QjBzZ6pgx2wAAU-96" target="axZxs7QjBzZ6pgx2wAAU-100" edge="1">
          <mxGeometry relative="1" as="geometry" />
        </mxCell>
        <mxCell id="axZxs7QjBzZ6pgx2wAAU-96" value="Customer Type" style="rhombus;whiteSpace=wrap;html=1;rounded=1;fontSize=13;fontStyle=1;fillColor=#ffff88;strokeColor=#36393d;" parent="1" vertex="1">
          <mxGeometry x="-121" y="-231" width="125" height="83" as="geometry" />
        </mxCell>
        <mxCell id="axZxs7QjBzZ6pgx2wAAU-97" value="" style="edgeStyle=none;curved=1;rounded=0;orthogonalLoop=1;jettySize=auto;html=1;fontSize=13;startSize=8;endSize=8;fontStyle=1;" parent="1" source="axZxs7QjBzZ6pgx2wAAU-98" target="axZxs7QjBzZ6pgx2wAAU-102" edge="1">
          <mxGeometry relative="1" as="geometry" />
        </mxCell>
        <mxCell id="axZxs7QjBzZ6pgx2wAAU-98" value="Existing Customer" style="whiteSpace=wrap;html=1;rounded=1;fontSize=13;fontStyle=1;" parent="1" vertex="1">
          <mxGeometry x="81" y="-221" width="120" height="60" as="geometry" />
        </mxCell>
        <mxCell id="axZxs7QjBzZ6pgx2wAAU-99" value="" style="edgeStyle=none;curved=1;rounded=0;orthogonalLoop=1;jettySize=auto;html=1;fontSize=13;startSize=8;endSize=8;fontStyle=1;" parent="1" source="axZxs7QjBzZ6pgx2wAAU-100" target="axZxs7QjBzZ6pgx2wAAU-117" edge="1">
          <mxGeometry relative="1" as="geometry" />
        </mxCell>
        <mxCell id="axZxs7QjBzZ6pgx2wAAU-100" value="New Customer" style="whiteSpace=wrap;html=1;rounded=1;fontSize=13;fontStyle=1;" parent="1" vertex="1">
          <mxGeometry x="-319" y="-221" width="120" height="60" as="geometry" />
        </mxCell>
        <mxCell id="axZxs7QjBzZ6pgx2wAAU-101" value="" style="edgeStyle=none;curved=1;rounded=0;orthogonalLoop=1;jettySize=auto;html=1;fontSize=13;startSize=8;endSize=8;fontStyle=1;" parent="1" source="axZxs7QjBzZ6pgx2wAAU-102" target="Hzr_RUG9QyEOuLMwAOvv-33" edge="1">
          <mxGeometry relative="1" as="geometry">
            <mxPoint x="141" y="71" as="targetPoint" />
          </mxGeometry>
        </mxCell>
        <mxCell id="axZxs7QjBzZ6pgx2wAAU-102" value="Customer Name Drop Down with Search option&lt;div&gt;(if necessary add segment as filter)&lt;/div&gt;" style="whiteSpace=wrap;html=1;rounded=1;fontSize=13;fontStyle=1;fillColor=#ffff88;strokeColor=#36393d;" parent="1" vertex="1">
          <mxGeometry x="81" y="-136" width="120" height="130" as="geometry" />
        </mxCell>
        <mxCell id="axZxs7QjBzZ6pgx2wAAU-105" style="edgeStyle=none;curved=1;rounded=0;orthogonalLoop=1;jettySize=auto;html=1;exitX=0.5;exitY=1;exitDx=0;exitDy=0;fontSize=13;startSize=8;endSize=8;fontStyle=1;" parent="1" edge="1">
          <mxGeometry relative="1" as="geometry">
            <mxPoint x="141" y="46" as="sourcePoint" />
            <mxPoint x="141" y="46" as="targetPoint" />
          </mxGeometry>
        </mxCell>
        <mxCell id="axZxs7QjBzZ6pgx2wAAU-106" style="edgeStyle=none;curved=1;rounded=0;orthogonalLoop=1;jettySize=auto;html=1;exitX=1;exitY=1;exitDx=0;exitDy=0;fontSize=13;startSize=8;endSize=8;fontStyle=1;" parent="1" edge="1">
          <mxGeometry relative="1" as="geometry">
            <mxPoint x="201" y="46" as="sourcePoint" />
            <mxPoint x="201" y="46" as="targetPoint" />
          </mxGeometry>
        </mxCell>
        <mxCell id="Hzr_RUG9QyEOuLMwAOvv-21" value="" style="edgeStyle=none;curved=1;rounded=0;orthogonalLoop=1;jettySize=auto;html=1;fontSize=12;startSize=8;endSize=8;entryX=0.436;entryY=0.005;entryDx=0;entryDy=0;entryPerimeter=0;" parent="1" target="Hzr_RUG9QyEOuLMwAOvv-14" edge="1">
          <mxGeometry relative="1" as="geometry">
            <mxPoint x="142.18774643615416" y="185" as="sourcePoint" />
          </mxGeometry>
        </mxCell>
        <mxCell id="axZxs7QjBzZ6pgx2wAAU-116" value="" style="edgeStyle=none;curved=1;rounded=0;orthogonalLoop=1;jettySize=auto;html=1;fontSize=13;startSize=8;endSize=8;fontStyle=1;" parent="1" source="axZxs7QjBzZ6pgx2wAAU-117" target="axZxs7QjBzZ6pgx2wAAU-119" edge="1">
          <mxGeometry relative="1" as="geometry" />
        </mxCell>
        <mxCell id="axZxs7QjBzZ6pgx2wAAU-117" value="Customer Name" style="whiteSpace=wrap;html=1;rounded=1;fontSize=13;fontStyle=1;fillColor=#ffff88;strokeColor=#36393d;" parent="1" vertex="1">
          <mxGeometry x="-319" y="-129" width="120" height="58" as="geometry" />
        </mxCell>
        <mxCell id="axZxs7QjBzZ6pgx2wAAU-118" value="" style="edgeStyle=none;curved=1;rounded=0;orthogonalLoop=1;jettySize=auto;html=1;fontSize=13;startSize=8;endSize=8;fontStyle=1;" parent="1" source="axZxs7QjBzZ6pgx2wAAU-119" target="axZxs7QjBzZ6pgx2wAAU-121" edge="1">
          <mxGeometry relative="1" as="geometry" />
        </mxCell>
        <mxCell id="axZxs7QjBzZ6pgx2wAAU-119" value="Connected Person Designation" style="whiteSpace=wrap;html=1;rounded=1;fontSize=13;fontStyle=1;" parent="1" vertex="1">
          <mxGeometry x="-319" y="-32" width="120" height="60" as="geometry" />
        </mxCell>
        <mxCell id="axZxs7QjBzZ6pgx2wAAU-120" value="" style="edgeStyle=none;curved=1;rounded=0;orthogonalLoop=1;jettySize=auto;html=1;fontSize=13;startSize=8;endSize=8;fontStyle=1;" parent="1" source="axZxs7QjBzZ6pgx2wAAU-121" target="axZxs7QjBzZ6pgx2wAAU-123" edge="1">
          <mxGeometry relative="1" as="geometry" />
        </mxCell>
        <mxCell id="axZxs7QjBzZ6pgx2wAAU-121" value="Connected Person Name" style="whiteSpace=wrap;html=1;rounded=1;fontSize=13;fontStyle=1;" parent="1" vertex="1">
          <mxGeometry x="-319" y="63" width="120" height="60" as="geometry" />
        </mxCell>
        <mxCell id="axZxs7QjBzZ6pgx2wAAU-122" value="" style="edgeStyle=none;curved=1;rounded=0;orthogonalLoop=1;jettySize=auto;html=1;fontSize=13;startSize=8;endSize=8;fontStyle=1;" parent="1" source="axZxs7QjBzZ6pgx2wAAU-123" target="axZxs7QjBzZ6pgx2wAAU-125" edge="1">
          <mxGeometry relative="1" as="geometry" />
        </mxCell>
        <mxCell id="axZxs7QjBzZ6pgx2wAAU-123" value="Connected Person&lt;div&gt;&amp;nbsp;Ph no&lt;/div&gt;" style="whiteSpace=wrap;html=1;rounded=1;fontSize=13;fontStyle=1;fillColor=#ffff88;strokeColor=#36393d;" parent="1" vertex="1">
          <mxGeometry x="-319" y="176" width="120" height="60" as="geometry" />
        </mxCell>
        <mxCell id="axZxs7QjBzZ6pgx2wAAU-124" value="" style="edgeStyle=none;curved=1;rounded=0;orthogonalLoop=1;jettySize=auto;html=1;fontSize=13;startSize=8;endSize=8;fontStyle=1;" parent="1" source="axZxs7QjBzZ6pgx2wAAU-125" target="axZxs7QjBzZ6pgx2wAAU-128" edge="1">
          <mxGeometry relative="1" as="geometry" />
        </mxCell>
        <mxCell id="axZxs7QjBzZ6pgx2wAAU-125" value="Connected person Email Id" style="whiteSpace=wrap;html=1;rounded=1;fontSize=13;fontStyle=1;" parent="1" vertex="1">
          <mxGeometry x="-319" y="296" width="120" height="60" as="geometry" />
        </mxCell>
        <mxCell id="axZxs7QjBzZ6pgx2wAAU-126" value="" style="edgeStyle=none;curved=1;rounded=0;orthogonalLoop=1;jettySize=auto;html=1;fontSize=13;startSize=8;endSize=8;fontStyle=1;" parent="1" source="axZxs7QjBzZ6pgx2wAAU-128" target="axZxs7QjBzZ6pgx2wAAU-129" edge="1">
          <mxGeometry relative="1" as="geometry" />
        </mxCell>
        <mxCell id="axZxs7QjBzZ6pgx2wAAU-127" value="" style="edgeStyle=none;curved=1;rounded=0;orthogonalLoop=1;jettySize=auto;html=1;fontSize=13;startSize=8;endSize=8;fontStyle=1;" parent="1" source="axZxs7QjBzZ6pgx2wAAU-128" target="Hzr_RUG9QyEOuLMwAOvv-34" edge="1">
          <mxGeometry relative="1" as="geometry">
            <mxPoint x="-291" y="547" as="targetPoint" />
          </mxGeometry>
        </mxCell>
        <mxCell id="axZxs7QjBzZ6pgx2wAAU-128" value="Customer Segment&lt;br&gt;(&lt;span style=&quot;background-color: transparent; color: light-dark(rgb(0, 0, 0), rgb(255, 255, 255));&quot;&gt;Drop Down)&lt;/span&gt;" style="whiteSpace=wrap;html=1;rounded=1;fontSize=13;fontStyle=1;fillColor=#ffff88;strokeColor=#36393d;" parent="1" vertex="1">
          <mxGeometry x="-319" y="410" width="120" height="60" as="geometry" />
        </mxCell>
        <mxCell id="axZxs7QjBzZ6pgx2wAAU-129" value="Input Customer Segment" style="whiteSpace=wrap;html=1;rounded=1;fontSize=13;fontStyle=1;" parent="1" vertex="1">
          <mxGeometry x="-559" y="410" width="120" height="60" as="geometry" />
        </mxCell>
        <mxCell id="axZxs7QjBzZ6pgx2wAAU-130" value="Others" style="shape=callout;whiteSpace=wrap;html=1;perimeter=calloutPerimeter;fontSize=13;fontStyle=1;" parent="1" vertex="1">
          <mxGeometry x="-437" y="361" width="120" height="80" as="geometry" />
        </mxCell>
        <mxCell id="axZxs7QjBzZ6pgx2wAAU-131" value="" style="edgeStyle=none;curved=1;rounded=0;orthogonalLoop=1;jettySize=auto;html=1;fontSize=13;startSize=8;endSize=8;fontStyle=1;" parent="1" source="axZxs7QjBzZ6pgx2wAAU-133" target="axZxs7QjBzZ6pgx2wAAU-136" edge="1">
          <mxGeometry relative="1" as="geometry" />
        </mxCell>
        <mxCell id="axZxs7QjBzZ6pgx2wAAU-132" value="" style="edgeStyle=none;curved=1;rounded=0;orthogonalLoop=1;jettySize=auto;html=1;fontSize=13;startSize=8;endSize=8;fontStyle=1;" parent="1" source="axZxs7QjBzZ6pgx2wAAU-133" target="axZxs7QjBzZ6pgx2wAAU-138" edge="1">
          <mxGeometry relative="1" as="geometry" />
        </mxCell>
        <mxCell id="axZxs7QjBzZ6pgx2wAAU-133" value="Customer Connection Type" style="rhombus;whiteSpace=wrap;html=1;rounded=1;fontSize=13;fontStyle=1;fillColor=#ffff88;strokeColor=#36393d;" parent="1" vertex="1">
          <mxGeometry x="-319" y="1042" width="132" height="122" as="geometry" />
        </mxCell>
        <mxCell id="axZxs7QjBzZ6pgx2wAAU-134" value="" style="endArrow=classic;html=1;rounded=0;fontSize=13;startSize=8;endSize=8;curved=0;exitX=0.5;exitY=1;exitDx=0;exitDy=0;fontStyle=1;entryX=0;entryY=0.5;entryDx=0;entryDy=0;" parent="1" source="axZxs7QjBzZ6pgx2wAAU-129" target="Hzr_RUG9QyEOuLMwAOvv-34" edge="1">
          <mxGeometry width="50" height="50" relative="1" as="geometry">
            <mxPoint x="-513.95" y="470" as="sourcePoint" />
            <mxPoint x="-403" y="603" as="targetPoint" />
            <Array as="points">
              <mxPoint x="-499" y="579" />
            </Array>
          </mxGeometry>
        </mxCell>
        <mxCell id="axZxs7QjBzZ6pgx2wAAU-135" value="" style="edgeStyle=none;curved=1;rounded=0;orthogonalLoop=1;jettySize=auto;html=1;fontSize=13;startSize=8;endSize=8;fontStyle=1;" parent="1" source="axZxs7QjBzZ6pgx2wAAU-136" edge="1" target="axZxs7QjBzZ6pgx2wAAU-150">
          <mxGeometry relative="1" as="geometry">
            <mxPoint x="-326.5" y="1340.800048828125" as="targetPoint" />
          </mxGeometry>
        </mxCell>
        <mxCell id="axZxs7QjBzZ6pgx2wAAU-136" value="Direct" style="whiteSpace=wrap;html=1;rounded=1;fontSize=13;fontStyle=1;" parent="1" vertex="1">
          <mxGeometry x="-308.5" y="1214" width="120" height="60" as="geometry" />
        </mxCell>
        <mxCell id="axZxs7QjBzZ6pgx2wAAU-137" value="" style="edgeStyle=none;curved=1;rounded=0;orthogonalLoop=1;jettySize=auto;html=1;fontSize=13;startSize=8;endSize=8;fontStyle=1;" parent="1" source="axZxs7QjBzZ6pgx2wAAU-138" target="axZxs7QjBzZ6pgx2wAAU-140" edge="1">
          <mxGeometry relative="1" as="geometry" />
        </mxCell>
        <mxCell id="axZxs7QjBzZ6pgx2wAAU-138" value="Indirect" style="whiteSpace=wrap;html=1;rounded=1;fontSize=13;fontStyle=1;" parent="1" vertex="1">
          <mxGeometry x="-125" y="1075" width="120" height="60" as="geometry" />
        </mxCell>
        <mxCell id="axZxs7QjBzZ6pgx2wAAU-139" value="" style="edgeStyle=none;curved=1;rounded=0;orthogonalLoop=1;jettySize=auto;html=1;fontSize=13;startSize=8;endSize=8;fontStyle=1;" parent="1" source="axZxs7QjBzZ6pgx2wAAU-140" edge="1" target="axZxs7QjBzZ6pgx2wAAU-150">
          <mxGeometry relative="1" as="geometry">
            <mxPoint x="-482" y="1451" as="targetPoint" />
          </mxGeometry>
        </mxCell>
        <mxCell id="axZxs7QjBzZ6pgx2wAAU-140" value="DB Name" style="whiteSpace=wrap;html=1;rounded=1;fontSize=13;fontStyle=1;" parent="1" vertex="1">
          <mxGeometry x="-125" y="1214" width="120" height="60" as="geometry" />
        </mxCell>
        <mxCell id="axZxs7QjBzZ6pgx2wAAU-141" value="" style="edgeStyle=none;curved=1;rounded=0;orthogonalLoop=1;jettySize=auto;html=1;fontSize=13;startSize=8;endSize=8;fontStyle=1;exitX=0.5;exitY=1;exitDx=0;exitDy=0;" parent="1" target="axZxs7QjBzZ6pgx2wAAU-145" edge="1" source="Hzr_RUG9QyEOuLMwAOvv-34">
          <mxGeometry relative="1" as="geometry">
            <mxPoint x="-322" y="620" as="sourcePoint" />
          </mxGeometry>
        </mxCell>
        <mxCell id="axZxs7QjBzZ6pgx2wAAU-143" style="edgeStyle=none;curved=1;rounded=0;orthogonalLoop=1;jettySize=auto;html=1;entryX=0.998;entryY=0.62;entryDx=0;entryDy=0;entryPerimeter=0;fontSize=13;startSize=8;endSize=8;fontStyle=1;" parent="1" edge="1">
          <mxGeometry relative="1" as="geometry">
            <mxPoint x="-265" y="597.2289156626503" as="sourcePoint" />
            <mxPoint x="-265.24" y="597.1999999999998" as="targetPoint" />
          </mxGeometry>
        </mxCell>
        <mxCell id="axZxs7QjBzZ6pgx2wAAU-144" value="" style="edgeStyle=none;curved=1;rounded=0;orthogonalLoop=1;jettySize=auto;html=1;fontSize=13;startSize=8;endSize=8;fontStyle=1;" parent="1" source="axZxs7QjBzZ6pgx2wAAU-145" target="axZxs7QjBzZ6pgx2wAAU-147" edge="1">
          <mxGeometry relative="1" as="geometry" />
        </mxCell>
        <mxCell id="axZxs7QjBzZ6pgx2wAAU-145" value="Oil Potential" style="whiteSpace=wrap;html=1;fontSize=13;fontStyle=1;" parent="1" vertex="1">
          <mxGeometry x="-321" y="671" width="120" height="60" as="geometry" />
        </mxCell>
        <mxCell id="axZxs7QjBzZ6pgx2wAAU-146" value="" style="edgeStyle=none;curved=1;rounded=0;orthogonalLoop=1;jettySize=auto;html=1;fontSize=13;startSize=8;endSize=8;fontStyle=1;" parent="1" source="axZxs7QjBzZ6pgx2wAAU-147" target="axZxs7QjBzZ6pgx2wAAU-149" edge="1">
          <mxGeometry relative="1" as="geometry" />
        </mxCell>
        <mxCell id="axZxs7QjBzZ6pgx2wAAU-147" value="Food Potential" style="whiteSpace=wrap;html=1;fontSize=13;fontStyle=1;" parent="1" vertex="1">
          <mxGeometry x="-321" y="801" width="120" height="60" as="geometry" />
        </mxCell>
        <mxCell id="axZxs7QjBzZ6pgx2wAAU-148" value="" style="edgeStyle=none;curved=1;rounded=0;orthogonalLoop=1;jettySize=auto;html=1;fontSize=13;startSize=8;endSize=8;fontStyle=1;entryX=0.5;entryY=0.033;entryDx=0;entryDy=0;entryPerimeter=0;" parent="1" source="axZxs7QjBzZ6pgx2wAAU-149" target="axZxs7QjBzZ6pgx2wAAU-133" edge="1">
          <mxGeometry relative="1" as="geometry" />
        </mxCell>
        <mxCell id="axZxs7QjBzZ6pgx2wAAU-149" value="Key Observation" style="whiteSpace=wrap;html=1;fontSize=13;fontStyle=1;" parent="1" vertex="1">
          <mxGeometry x="-317" y="914" width="120" height="60" as="geometry" />
        </mxCell>
        <mxCell id="Hzr_RUG9QyEOuLMwAOvv-4" value="" style="edgeStyle=none;curved=1;rounded=0;orthogonalLoop=1;jettySize=auto;html=1;fontSize=13;startSize=8;endSize=8;fontStyle=1;" parent="1" source="axZxs7QjBzZ6pgx2wAAU-150" target="Hzr_RUG9QyEOuLMwAOvv-2" edge="1">
          <mxGeometry relative="1" as="geometry" />
        </mxCell>
        <mxCell id="axZxs7QjBzZ6pgx2wAAU-150" value="Upload Image" style="whiteSpace=wrap;html=1;fontSize=13;fontStyle=1;fillColor=#ffff88;strokeColor=#36393d;" parent="1" vertex="1">
          <mxGeometry x="-215" y="1333" width="120" height="60" as="geometry" />
        </mxCell>
        <mxCell id="Hzr_RUG9QyEOuLMwAOvv-2" value="Master Data" style="shape=process;whiteSpace=wrap;html=1;backgroundOutline=1;fontSize=13;fontStyle=1;" parent="1" vertex="1">
          <mxGeometry x="-215" y="1481" width="120" height="60" as="geometry" />
        </mxCell>
        <mxCell id="Hzr_RUG9QyEOuLMwAOvv-3" value="Visit Data" style="shape=process;whiteSpace=wrap;html=1;backgroundOutline=1;fontSize=13;fontStyle=1;" parent="1" vertex="1">
          <mxGeometry x="96" y="1333" width="120" height="60" as="geometry" />
        </mxCell>
        <mxCell id="Hzr_RUG9QyEOuLMwAOvv-5" value="" style="endArrow=classic;html=1;rounded=0;fontSize=13;startSize=8;endSize=8;curved=1;fontStyle=1;" parent="1" target="Hzr_RUG9QyEOuLMwAOvv-3" edge="1">
          <mxGeometry width="50" height="50" relative="1" as="geometry">
            <mxPoint x="-94" y="1364" as="sourcePoint" />
            <mxPoint x="-44" y="1314" as="targetPoint" />
          </mxGeometry>
        </mxCell>
        <mxCell id="Hzr_RUG9QyEOuLMwAOvv-23" value="" style="edgeStyle=none;curved=1;rounded=0;orthogonalLoop=1;jettySize=auto;html=1;fontSize=12;startSize=8;endSize=8;" parent="1" source="Hzr_RUG9QyEOuLMwAOvv-14" target="Hzr_RUG9QyEOuLMwAOvv-22" edge="1">
          <mxGeometry relative="1" as="geometry" />
        </mxCell>
        <mxCell id="Hzr_RUG9QyEOuLMwAOvv-14" value="Sub Status" style="swimlane;whiteSpace=wrap;html=1;fillColor=#ffff88;strokeColor=#36393d;" parent="1" vertex="1">
          <mxGeometry x="56" y="222" width="200" height="183" as="geometry" />
        </mxCell>
        <mxCell id="Hzr_RUG9QyEOuLMwAOvv-15" value="1.&amp;nbsp;&lt;span style=&quot;background-color: transparent; color: light-dark(rgb(0, 0, 0), rgb(255, 255, 255));&quot;&gt;Connection&lt;/span&gt;" style="text;html=1;align=center;verticalAlign=middle;resizable=0;points=[];autosize=1;strokeColor=none;fillColor=none;fontSize=16;" parent="Hzr_RUG9QyEOuLMwAOvv-14" vertex="1">
          <mxGeometry x="5" y="30" width="117" height="31" as="geometry" />
        </mxCell>
        <mxCell id="Hzr_RUG9QyEOuLMwAOvv-19" value="5.&amp;nbsp;&lt;span style=&quot;background-color: transparent; color: light-dark(rgb(0, 0, 0), rgb(255, 255, 255));&quot;&gt;Billing&lt;/span&gt;" style="text;html=1;align=center;verticalAlign=middle;resizable=0;points=[];autosize=1;strokeColor=none;fillColor=none;fontSize=16;" parent="Hzr_RUG9QyEOuLMwAOvv-14" vertex="1">
          <mxGeometry x="5" y="151" width="78" height="31" as="geometry" />
        </mxCell>
        <mxCell id="Hzr_RUG9QyEOuLMwAOvv-18" value="4.&amp;nbsp;&lt;span style=&quot;background-color: transparent; color: light-dark(rgb(0, 0, 0), rgb(255, 255, 255));&quot;&gt;SD/BG/Payment&lt;/span&gt;" style="text;html=1;align=center;verticalAlign=middle;resizable=0;points=[];autosize=1;strokeColor=none;fillColor=none;fontSize=16;" parent="Hzr_RUG9QyEOuLMwAOvv-14" vertex="1">
          <mxGeometry x="5" y="120" width="153" height="31" as="geometry" />
        </mxCell>
        <mxCell id="Hzr_RUG9QyEOuLMwAOvv-17" value="3. Documentation" style="text;html=1;align=center;verticalAlign=middle;resizable=0;points=[];autosize=1;strokeColor=none;fillColor=none;fontSize=16;" parent="Hzr_RUG9QyEOuLMwAOvv-14" vertex="1">
          <mxGeometry x="5" y="92" width="143" height="31" as="geometry" />
        </mxCell>
        <mxCell id="Hzr_RUG9QyEOuLMwAOvv-16" value="2. Sampling" style="text;html=1;align=center;verticalAlign=middle;resizable=0;points=[];autosize=1;strokeColor=none;fillColor=none;fontSize=16;" parent="Hzr_RUG9QyEOuLMwAOvv-14" vertex="1">
          <mxGeometry x="5" y="61" width="103" height="31" as="geometry" />
        </mxCell>
        <mxCell id="TpEUEDm94xUCG_052bs2-8" value="" style="edgeStyle=none;curved=1;rounded=0;orthogonalLoop=1;jettySize=auto;html=1;fontSize=12;startSize=8;endSize=8;" edge="1" parent="1" source="Hzr_RUG9QyEOuLMwAOvv-22" target="TpEUEDm94xUCG_052bs2-3">
          <mxGeometry relative="1" as="geometry" />
        </mxCell>
        <mxCell id="Hzr_RUG9QyEOuLMwAOvv-22" value="Based On Status Upload necessary document" style="whiteSpace=wrap;html=1;fontStyle=1;startSize=23;fillColor=#ffff88;strokeColor=#36393d;" parent="1" vertex="1">
          <mxGeometry x="99" y="476" width="120" height="60" as="geometry" />
        </mxCell>
        <mxCell id="Hzr_RUG9QyEOuLMwAOvv-24" value="Upload Image" style="whiteSpace=wrap;html=1;fontStyle=1;startSize=23;fillColor=#ffff88;strokeColor=#36393d;" parent="1" vertex="1">
          <mxGeometry x="99" y="966" width="120" height="60" as="geometry" />
        </mxCell>
        <mxCell id="Hzr_RUG9QyEOuLMwAOvv-26" value="" style="endArrow=classic;html=1;rounded=0;fontSize=12;startSize=8;endSize=8;curved=1;entryX=0.5;entryY=0;entryDx=0;entryDy=0;" parent="1" target="Hzr_RUG9QyEOuLMwAOvv-3" edge="1">
          <mxGeometry width="50" height="50" relative="1" as="geometry">
            <mxPoint x="158" y="1025" as="sourcePoint" />
            <mxPoint x="208" y="975" as="targetPoint" />
          </mxGeometry>
        </mxCell>
        <mxCell id="Hzr_RUG9QyEOuLMwAOvv-33" value="&lt;span style=&quot;font-size: 13px; font-weight: 700;&quot;&gt;Business Status&lt;/span&gt;&lt;br style=&quot;font-size: 13px; font-weight: 700;&quot;&gt;&lt;span style=&quot;font-size: 13px; font-weight: 700;&quot;&gt;(Active/Not Active)&lt;/span&gt;" style="rhombus;whiteSpace=wrap;html=1;fillColor=#ffff88;strokeColor=#36393d;" parent="1" vertex="1">
          <mxGeometry x="80" y="67" width="126" height="120" as="geometry" />
        </mxCell>
        <mxCell id="Hzr_RUG9QyEOuLMwAOvv-34" value="&lt;span style=&quot;font-size: 13px; font-weight: 700;&quot;&gt;Business Potential&lt;/span&gt;" style="rounded=1;whiteSpace=wrap;html=1;fillColor=#ffff88;strokeColor=#36393d;" parent="1" vertex="1">
          <mxGeometry x="-321" y="548" width="120" height="60" as="geometry" />
        </mxCell>
        <mxCell id="TpEUEDm94xUCG_052bs2-1" value="" style="edgeStyle=none;curved=1;rounded=0;orthogonalLoop=1;jettySize=auto;html=1;fontSize=13;startSize=8;endSize=8;fontStyle=1;" edge="1" parent="1" source="TpEUEDm94xUCG_052bs2-3" target="TpEUEDm94xUCG_052bs2-5">
          <mxGeometry relative="1" as="geometry" />
        </mxCell>
        <mxCell id="TpEUEDm94xUCG_052bs2-2" value="" style="edgeStyle=none;curved=1;rounded=0;orthogonalLoop=1;jettySize=auto;html=1;fontSize=13;startSize=8;endSize=8;fontStyle=1;" edge="1" parent="1" source="TpEUEDm94xUCG_052bs2-3" target="TpEUEDm94xUCG_052bs2-6">
          <mxGeometry relative="1" as="geometry" />
        </mxCell>
        <mxCell id="TpEUEDm94xUCG_052bs2-3" value="Customer Connection&lt;div&gt;&amp;nbsp;Type&lt;/div&gt;" style="rhombus;whiteSpace=wrap;html=1;rounded=1;fontSize=13;fontStyle=1;fillColor=#ffff88;strokeColor=#36393d;" vertex="1" parent="1">
          <mxGeometry x="81" y="600" width="156" height="116" as="geometry" />
        </mxCell>
        <mxCell id="TpEUEDm94xUCG_052bs2-4" value="" style="edgeStyle=none;curved=1;rounded=0;orthogonalLoop=1;jettySize=auto;html=1;fontSize=13;startSize=8;endSize=8;fontStyle=1;" edge="1" parent="1" source="TpEUEDm94xUCG_052bs2-5" target="TpEUEDm94xUCG_052bs2-7">
          <mxGeometry relative="1" as="geometry" />
        </mxCell>
        <mxCell id="TpEUEDm94xUCG_052bs2-5" value="Indirect" style="whiteSpace=wrap;html=1;rounded=1;fontSize=13;fontStyle=1;" vertex="1" parent="1">
          <mxGeometry x="330" y="628" width="120" height="60" as="geometry" />
        </mxCell>
        <mxCell id="TpEUEDm94xUCG_052bs2-9" value="" style="edgeStyle=none;curved=1;rounded=0;orthogonalLoop=1;jettySize=auto;html=1;fontSize=12;startSize=8;endSize=8;" edge="1" parent="1" source="TpEUEDm94xUCG_052bs2-6" target="Hzr_RUG9QyEOuLMwAOvv-24">
          <mxGeometry relative="1" as="geometry" />
        </mxCell>
        <mxCell id="TpEUEDm94xUCG_052bs2-6" value="Direct" style="whiteSpace=wrap;html=1;rounded=1;fontSize=13;fontStyle=1;" vertex="1" parent="1">
          <mxGeometry x="99" y="790" width="120" height="60" as="geometry" />
        </mxCell>
        <mxCell id="TpEUEDm94xUCG_052bs2-7" value="DB Name" style="whiteSpace=wrap;html=1;rounded=1;fontSize=13;fontStyle=1;" vertex="1" parent="1">
          <mxGeometry x="330" y="784" width="120" height="60" as="geometry" />
        </mxCell>
        <mxCell id="TpEUEDm94xUCG_052bs2-10" value="" style="endArrow=classic;html=1;rounded=0;fontSize=12;startSize=8;endSize=8;curved=0;entryX=1;entryY=0.5;entryDx=0;entryDy=0;" edge="1" parent="1" target="Hzr_RUG9QyEOuLMwAOvv-24">
          <mxGeometry width="50" height="50" relative="1" as="geometry">
            <mxPoint x="388" y="845" as="sourcePoint" />
            <mxPoint x="438" y="795" as="targetPoint" />
            <Array as="points">
              <mxPoint x="392" y="996" />
            </Array>
          </mxGeometry>
        </mxCell>
      </root>
    </mxGraphModel>
  </diagram>
</mxfile>
